<?xml version="1.0" encoding="utf-8"?>
<!-- Generator: Adobe Illustrator 19.0.0, SVG Export Plug-In . SVG Version: 6.00 Build 0)  -->
<svg version="1.1" id="Layer_1" xmlns="http://www.w3.org/2000/svg" xmlns:xlink="http://www.w3.org/1999/xlink" x="0px" y="0px"
	 viewBox="0 0 505.3 504.3" style="enable-background:new 0 0 505.3 504.3;" xml:space="preserve">
<circle id="XMLID_37_" cx="7.1" cy="6.8" r="6.8"/>
<circle id="XMLID_35_" cx="35.1" cy="7.3" r="5.1"/>
<circle id="XMLID_17_" cx="63.9" cy="7.1" r="3.9"/>
<circle id="XMLID_34_" cx="93.2" cy="7.4" r="3.2"/>
<circle id="XMLID_56_" cx="7.2" cy="35.2" r="5.1"/>
<circle id="XMLID_42_" cx="7" cy="63" r="3.9"/>
<circle id="XMLID_38_" cx="7.3" cy="93.3" r="3.2"/>
<circle id="XMLID_44_" cx="6.8" cy="497.4" r="6.8"/>
<circle id="XMLID_43_" cx="5.3" cy="469.4" r="5.1"/>
<circle id="XMLID_41_" cx="4.1" cy="440.6" r="3.9"/>
<circle id="XMLID_40_" cx="3.4" cy="411.3" r="3.2"/>
<circle id="XMLID_39_" cx="35.2" cy="497.3" r="5.1"/>
<circle id="XMLID_33_" cx="64" cy="497.5" r="3.9"/>
<circle id="XMLID_32_" cx="93.3" cy="501.2" r="3.2"/>
<circle id="XMLID_63_" cx="497.6" cy="7.1" r="6.8"/>
<circle id="XMLID_62_" cx="497.2" cy="35.1" r="5.1"/>
<circle id="XMLID_61_" cx="497.4" cy="63.9" r="3.9"/>
<circle id="XMLID_60_" cx="497.1" cy="93.2" r="3.2"/>
<circle id="XMLID_59_" cx="469.3" cy="7.2" r="5.1"/>
<circle id="XMLID_58_" cx="440.5" cy="7" r="3.9"/>
<circle id="XMLID_57_" cx="411.2" cy="7.3" r="3.2"/>
<circle id="XMLID_71_" cx="498.4" cy="497.6" r="6.8"/>
<circle id="XMLID_70_" cx="470.4" cy="497.2" r="5.1"/>
<circle id="XMLID_69_" cx="441.6" cy="497.4" r="3.9"/>
<circle id="XMLID_68_" cx="412.3" cy="497.1" r="3.2"/>
<circle id="XMLID_67_" cx="498.3" cy="469.3" r="5.1"/>
<circle id="XMLID_66_" cx="498.5" cy="440.5" r="3.9"/>
<circle id="XMLID_65_" cx="498.2" cy="411.2" r="3.2"/>
</svg>
