<?xml version="1.0" encoding="utf-8"?>
<!-- Generator: Adobe Illustrator 19.0.0, SVG Export Plug-In . SVG Version: 6.00 Build 0)  -->
<svg version="1.1" id="Layer_1" xmlns="http://www.w3.org/2000/svg" xmlns:xlink="http://www.w3.org/1999/xlink" x="0px" y="0px"
	 viewBox="0 0 180 180" style="enable-background:new 0 0 180 180;" xml:space="preserve">
<style type="text/css">
	.st0{fill:#FFFFFF;}
</style>
<g>
	<path class="st0" d="M180,90.4c-0.1,49.4-40.8,89.8-90.3,89.6C40.2,179.8-0.1,139.2,0,89.6C0.1,40.3,40.7,0,90.4,0
		C139.7,0,180.1,40.8,180,90.4z M89.5,168c42.9,0.2,78.2-34.6,78.5-77.3c0.3-42.9-35-78.5-77.9-78.6C47.7,12,12.4,47,12.1,89.5
		C11.8,132.3,46.8,167.8,89.5,168z"/>
	<path class="st0" d="M91,110.8c4.6-14.6,8.8-27.9,13-41.2c2-6.2,3.6-12.5,6-18.5c0.8-2.1,3.6-4.8,5.3-4.7c2.2,0.1,5.2,2.5,6,4.6
		c4.2,10.5,8.1,21.1,11.5,31.9c1.3,4.2,3.4,5.5,7.5,5.1c3-0.3,6-0.1,9,0c3.3,0.1,5.8,2.3,5.2,5.3c-0.4,2.2-3.1,5.3-5,5.5
		c-6.4,0.7-13,0.7-19.4,0.1c-1.9-0.2-4.4-2.8-5.3-4.9c-3.1-7.3-5.6-14.8-8.8-23.5c-1.3,3.7-2.1,6.1-2.9,8.6
		c-5,15.7-9.9,31.4-14.8,47.1c-1,3.3-1.9,6.6-6,7c-4.6,0.4-5.7-3.2-7.1-6.4c-6.5-14.7-13-29.4-19.9-44.9c-3.1,4.6-6,8.4-8.4,12.5
		c-2.3,4-5.4,5.4-9.9,5.2c-5.3-0.3-10.7-0.1-16-0.1c-3.9,0-6.7-1.7-6.7-5.7c0-4,2.8-6.4,6.6-5.6c13.1,2.6,20.9-3.4,26-14.7
		c0.9-2.1,2.5-3.9,3.8-5.8c3.8-5.3,8.7-4.9,11.4,1c5.4,12,10.7,24,16,36C88.8,106.1,89.6,107.8,91,110.8z"/>
</g>
</svg>
